<svg xmlns="http://www.w3.org/2000/svg" viewBox="0 0 640 640"><!--!Font Awesome Free 7.0.1 by @fontawesome - https://fontawesome.com License - https://fontawesome.com/license/free Copyright 2025 Fonticons, Inc.--><path d="M344 88C344 74.7 333.3 64 320 64C306.7 64 296 74.7 296 88L296 174.1L265 143.1C255.6 133.7 240.4 133.7 231.1 143.1C221.8 152.5 221.7 167.7 231.1 177L303.1 249C312.5 258.4 327.7 258.4 337 249L409 177C418.4 167.6 418.4 152.4 409 143.1C399.6 133.8 384.4 133.7 375.1 143.1L344.1 174.1L344.1 88zM497 409C506.4 399.6 506.4 384.4 497 375.1L466 344.1L552.1 344.1C565.4 344.1 576.1 333.4 576.1 320.1C576.1 306.8 565.4 296.1 552.1 296.1L466 296.1L497 265.1C506.4 255.7 506.4 240.5 497 231.2C487.6 221.9 472.4 221.8 463.1 231.2L391.1 303.2C381.7 312.6 381.7 327.8 391.1 337.1L463.1 409.1C472.5 418.5 487.7 418.5 497 409.1zM352 320C352 302.3 337.7 288 320 288C302.3 288 288 302.3 288 320C288 337.7 302.3 352 320 352C337.7 352 352 337.7 352 320zM177 231C167.6 221.6 152.4 221.6 143.1 231C133.8 240.4 133.7 255.6 143.1 264.9L174.1 295.9L88 295.9C74.7 295.9 64 306.6 64 319.9C64 333.2 74.7 343.9 88 343.9L174.1 343.9L143.1 374.9C133.7 384.3 133.7 399.5 143.1 408.8C152.5 418.1 167.7 418.2 177 408.8L249 336.8C258.4 327.4 258.4 312.2 249 302.9L177 230.9zM231 497C240.4 506.4 255.6 506.4 264.9 497L295.9 466L295.9 552.1C295.9 565.4 306.6 576.1 319.9 576.1C333.2 576.1 343.9 565.4 343.9 552.1L343.9 466L374.9 497C384.3 506.4 399.5 506.4 408.8 497C418.1 487.6 418.2 472.4 408.8 463.1L336.8 391.1C327.4 381.7 312.2 381.7 302.9 391.1L230.9 463.1C221.5 472.5 221.5 487.7 230.9 497z"/></svg>