<?xml version="1.0" standalone="no"?><!DOCTYPE svg PUBLIC "-//W3C//DTD SVG 1.1//EN" "http://www.w3.org/Graphics/SVG/1.1/DTD/svg11.dtd"><svg class="icon" width="200px" height="200.00px" viewBox="0 0 1024 1024" version="1.1" xmlns="http://www.w3.org/2000/svg"><path d="M466.944 145.92l-253.0816 129.3824a98.8672 98.8672 0 0 0-53.8624 88.064L160 657.92c0 36.864 20.48 70.656 53.1456 87.6544l253.08160001 132.096a98.8672 98.8672 0 0 0 91.54559998 0l253.08160001-132.096a98.8672 98.8672 0 0 0 53.1456-87.6544l0-294.5536c0-37.17119999-20.7872-71.168-53.8624-88.064l-253.1328-129.3824a98.8672 98.8672 0 0 0-90.0096 0z m372.3264 72.3968a162.8672 162.8672 0 0 1 88.7296 145.0496L927.99999999 657.92a162.8672 162.8672 0 0 1-87.55199999 144.384l-253.0816 132.096a162.8672 162.8672 0 0 1-150.7328 0l-253.1328-132.096a162.8672 162.8672 0 0 1-87.50079999-144.384l-1e-8-294.5536c0-61.184 34.304-117.1968 88.7296-145.0496l253.1328-129.3824c46.592-23.808 101.7344-23.808 148.2752 0l253.1328 129.3824z" fill="#80809A" /><path d="M697.6 512a185.6 185.6 0 1 1-371.2 0 185.6 185.6 0 0 1 371.2 0z m-64 0a121.6 121.6 0 1 0-243.2 0 121.6 121.6 0 0 0 243.2 0z" fill="#80809A" /></svg>