<?xml version="1.0" standalone="no"?><!DOCTYPE svg PUBLIC "-//W3C//DTD SVG 1.1//EN" "http://www.w3.org/Graphics/SVG/1.1/DTD/svg11.dtd"><svg class="icon" width="200px" height="200.00px" viewBox="0 0 1024 1024" version="1.1" xmlns="http://www.w3.org/2000/svg"><path d="M819.2 474.048v410.304H702.144v-410.24H819.2z m129.856-120.064c3.84 0 7.36 2.368 8.832 5.952l4.736 11.456c7.936 19.328 23.04 34.816 42.24 43.392l13.376 5.952a9.92 9.92 0 0 1 0 17.92l-14.272 6.4a81.691 81.691 0 0 0-41.6 41.984l-4.608 10.56a9.472 9.472 0 0 1-17.472 0l-4.608-10.56a81.536 81.536 0 0 0-41.6-42.048l-14.208-6.272a9.92 9.92 0 0 1 0-17.984l13.44-5.952c19.072-8.576 34.176-24.064 42.176-43.392l4.736-11.456a9.472 9.472 0 0 1 8.832-5.952zM776.896 93.12c7.296 0 13.824 4.352 16.512 11.072l16.64 40c14.08 34.304 40.96 61.888 74.88 76.992l43.776 19.392c14.4 6.4 14.4 27.264 0 33.6l-45.248 20.032c-33.024 14.72-59.328 41.344-73.728 74.496l-16.448 37.504a17.728 17.728 0 0 1-32.64 0l-16.448-37.504a144.704 144.704 0 0 0-73.792-74.496l-45.184-20.032a18.496 18.496 0 0 1 0-33.6l43.776-19.392a144.663 144.663 0 0 0 74.88-76.992l16.64-40A17.728 17.728 0 0 1 776.96 93.12z m-580.992 58.56h193.28l195.968 732.672H465.088L419.84 715.264H165.248l-45.12 169.088H0L195.904 151.68z m-0.448 450.88H389.76l-90.496-338.176h-13.44L195.52 602.56z" fill="#7988ff" /></svg>