<?xml version="1.0" encoding="UTF-8"?>
<svg width="210px" height="155px" viewBox="0 0 210 155" version="1.1" xmlns="http://www.w3.org/2000/svg" xmlns:xlink="http://www.w3.org/1999/xlink">
    <title>AIrengongzhineng</title>
    <g id="页面-1" stroke="none" stroke-width="1" fill="none" fill-rule="evenodd">
        <g id="AIrengongzhineng" transform="translate(0.2469, 0)" fill="#7988FF" fill-rule="nonzero">
            <path d="M195.115562,50.9499879 C195.865562,50.9499879 196.553062,51.4125032 196.840562,52.1125032 L197.765562,54.3500032 C199.315562,58.1250032 202.265562,61.1500032 206.015562,62.8250032 L208.628062,63.9875032 C209.303589,64.3084783 209.734053,64.9895981 209.734053,65.7375032 C209.734053,66.4854082 209.303589,67.166528 208.628062,67.4875032 L205.840562,68.7375032 C202.203714,70.3609564 199.30553,73.2858925 197.715562,76.9375032 L196.815562,79.0000032 C196.527446,79.6875624 195.854797,80.135013 195.109312,80.135013 C194.363826,80.135013 193.691178,79.6875624 193.403062,79.0000032 L192.503062,76.9375032 C190.918137,73.2795155 188.018863,70.3490188 184.378062,68.7250032 L181.603062,67.5000032 C180.920312,67.1819146 180.483787,66.4969647 180.483787,65.7437532 C180.483787,64.9905416 180.920312,64.3055917 181.603062,63.9875032 L184.228062,62.8250032 C187.953062,61.1500032 190.903062,58.1250032 192.465562,54.3500032 L193.390562,52.1125032 C193.672632,51.4078187 194.356527,50.946933 195.115562,50.9499879 L195.115562,50.9499879 Z M161.490562,1.58846251e-06 C162.915562,1.58846251e-06 164.190562,0.850003181 164.715562,2.16250318 L167.965562,9.97500318 C170.715562,16.6750032 175.965562,22.0625032 182.590562,25.0125032 L191.140562,28.8000032 C193.953062,30.0500032 193.953062,34.1250032 191.140562,35.3625032 L182.303062,39.2750032 C175.853062,42.1500032 170.715562,47.3500032 167.903062,53.8250032 L164.690562,61.1500032 C164.147804,62.4293238 162.892755,63.2601903 161.503062,63.2601903 C160.113368,63.2601903 158.85832,62.4293238 158.315562,61.1500032 L155.103062,53.8250032 C152.286861,47.3437319 147.144801,42.1526152 140.690562,39.2750032 L131.865562,35.3625032 C130.584728,34.7726295 129.764205,33.4913898 129.764205,32.0812532 C129.764205,30.6711165 130.584728,29.3898769 131.865562,28.8000032 L140.415562,25.0125032 C147.039565,22.0623931 152.27579,16.67848 155.040562,9.97500318 L158.290562,2.16250318 C158.820516,0.854252986 160.091549,-0.0013455358 161.503062,1.58846251e-06 L161.490562,1.58846251e-06 Z M91.4423293,12.6524908 L125.075121,152.187375 C125.362112,153.378037 124.730086,154.602964 123.663451,154.923326 C123.494,154.974221 123.319285,155 123.143807,155 L96.4096702,155 C95.5044091,155 94.7120242,154.321235 94.4777839,153.345126 L72.8483044,63.2123533 L72.8047377,63.0033918 L42.540426,126.119752 L76.9654404,126.119752 L66.5212856,153.638356 C66.2080079,154.463791 65.4828145,155 64.6797381,155 L2,155 C0.8954305,155 0,154.00045 0,152.767442 C0,152.418587 0.0732360452,152.074587 0.213834412,151.763031 L63.1828488,12.2281473 C63.5226908,11.4750814 64.2136292,11 64.9690144,11 L89.5110161,11 C90.4154556,11 91.2073362,11.6775573 91.4423293,12.6524908 Z M147.583683,72 L171.568011,72 C172.67258,72 173.568011,72.9407688 173.568011,74.1012658 C173.568011,74.1631769 173.565406,74.2250578 173.560205,74.2867273 L166.914636,153.084196 C166.823182,154.168569 165.958599,155 164.922441,155 L140.938113,155 C139.833543,155 138.938113,154.059231 138.938113,152.898734 C138.938113,152.836823 138.940717,152.774942 138.945918,152.713273 L145.591488,73.9158043 C145.682941,72.8314313 146.547525,72 147.583683,72 Z" id="形状"></path>
        </g>
    </g>
</svg>