<?xml version="1.0" standalone="no"?><!DOCTYPE svg PUBLIC "-//W3C//DTD SVG 1.1//EN" "http://www.w3.org/Graphics/SVG/1.1/DTD/svg11.dtd"><svg class="icon" width="200px" height="200.00px" viewBox="0 0 1024 1024" version="1.1" xmlns="http://www.w3.org/2000/svg"><path d="M97.13896982 294.89509707a35.05257247 35.05257247 0 0 0 35.03007422-35.09756983V153.37989687a21.21603047 21.21603047 0 0 1 21.26102695-21.14853573h106.39513213a35.48004258 35.48004258 0 0 0 31.67780625-17.09881524A35.12006807 35.12006807 0 0 0 259.82520313 62.03622237H124.00210917A61.93821094 61.93821094 0 0 0 62.0414 123.9069377v135.89058954a35.12006807 35.12006807 0 0 0 35.09756982 35.09756983z m162.6862333 596.88366592H153.43007099a21.19353222 21.19353222 0 0 1-21.26102695-21.14853575v-106.41763037a34.87258477 34.87258477 0 0 0-17.05381963-31.72280361 34.53510849 34.53510849 0 0 0-35.99750654 0A34.89508388 34.89508388 0 0 0 62.0414 764.21259688v135.66560536A62.14069688 62.14069688 0 0 0 124.00210917 961.97390175h135.82309396a35.48004258 35.48004258 0 0 0 31.67780625-17.0988161 35.03007422 35.03007422 0 0 0 0-35.99750654 35.48004258 35.48004258 0 0 0-31.67780625-17.09881612z m667.03380821-162.66373594a35.0750707 35.0750707 0 0 0-35.03007422 35.09756982v106.41763037a20.51857881 20.51857881 0 0 1-6.23206846 14.84897169 21.01354453 21.01354453 0 0 1-15.00646026 6.29956406h-106.41763124a35.12006807 35.12006807 0 1 0-1e-8 70.19513877h135.82309484a62.14069688 62.14069688 0 0 0 61.96070917-62.09569952v-135.66560537a34.82758828 34.82758828 0 0 0-35.09756982-35.09756982zM899.99587198 62.03622237h-135.82309483A35.12006807 35.12006807 0 0 0 732.49497089 115.1325459a35.48004258 35.48004258 0 0 0 31.67780625 17.09881524h106.41763125a21.19353222 21.19353222 0 0 1 21.23852872 21.14853573v106.41763037a35.09756982 35.09756982 0 1 0 70.12764404 0V123.9069377A61.93821094 61.93821094 0 0 0 899.99587198 62.03622237zM228.32738457 290.17042402v443.4442919a62.14069688 62.14069688 0 0 0 61.93821094 62.09569951h443.46679014a62.14069688 62.14069688 0 0 0 61.96070917-62.09569951V290.17042402a61.93821094 61.93821094 0 0 0-61.96070917-61.87071533H290.2655955a61.91571269 61.91571269 0 0 0-61.93821093 61.87071534z m66.59538838 417.57108311V316.04363281a21.19353222 21.19353222 0 0 1 21.23852959-21.14853573h391.67537608a21.17103398 21.17103398 0 0 1 21.26102783 21.14853573V707.74150713a21.50851026 21.50851026 0 0 1-6.23206846 15.07395673 21.08104013 21.08104013 0 0 1-15.02895937 6.29956319H316.16130253a21.08104013 21.08104013 0 0 1-15.02895937-6.29956318 21.48601201 21.48601201 0 0 1-6.20957021-15.07395674z m0 0" fill="#80809A" /></svg>