<?xml version="1.0" encoding="UTF-8"?>
<svg width="200px" height="200px" viewBox="0 0 200 200" version="1.1" xmlns="http://www.w3.org/2000/svg" xmlns:xlink="http://www.w3.org/1999/xlink">
    <title>gongjuxiang</title>
    <g id="页面-1" stroke="none" stroke-width="1" fill="none" fill-rule="evenodd">
        <g id="gongjuxiang" fill-rule="nonzero">
            <polygon id="路径" points="0 0 200 0 200 200 0 200"></polygon>
            <path d="M27.6714285,79.2285715 C26.7007698,80.6192962 26.5856087,82.4349038 27.3727723,83.9371245 C28.159936,85.4393452 29.7183346,86.3780074 31.4142857,86.3714629 L99.8571428,86.3714629 C101.593526,86.3758275 103.180533,85.3900522 103.946113,83.8315493 C104.711693,82.2730464 104.521915,80.4144641 103.457143,79.0428572 L71.2285715,37.1428572 C69.4597681,34.8381695 66.6954862,33.5183226 63.791204,33.5917772 C60.8869218,33.6652318 58.1928941,35.1231293 56.5428572,37.5142857 L27.6714285,79.2285715 Z" id="路径" fill="#69CB91"></path>
            <path d="M65.9142857,172.714286 C78.2608486,172.967034 89.7792599,166.524817 96.0266577,155.872517 C102.274056,145.220216 102.274056,132.022642 96.0266577,121.370341 C89.7792599,110.71804 78.2608486,104.275823 65.9142857,104.528571 C47.0813758,104.528571 31.8142857,119.795662 31.8142857,138.628571 C31.8142857,157.461481 47.0813758,172.728571 65.9142857,172.728571 L65.9142857,172.714286 Z" id="路径" fill="#247ADE"></path>
            <path d="M177.285714,36.3571428 C177.285714,35.1473355 176.803197,33.987491 175.945057,33.1347139 C175.086916,32.2819369 173.924069,31.8066769 172.714286,31.8141958 L131.828571,31.8141958 C129.319621,31.8141958 127.285714,33.8481921 127.285714,36.3571428 L127.285714,168.185714 C127.285714,170.694665 129.319621,172.728571 131.828571,172.728571 L172.742857,172.728571 C175.251808,172.728571 177.285714,170.694665 177.285714,168.185714 L177.285714,36.3571428 L177.285714,36.3571428 Z" id="路径" fill="#A0BFF7"></path>
        </g>
    </g>
</svg>