<?xml version="1.0" encoding="UTF-8"?>
<svg width="349px" height="358px" viewBox="0 0 349 358" version="1.1" xmlns="http://www.w3.org/2000/svg" xmlns:xlink="http://www.w3.org/1999/xlink">
    <title>编组</title>
    <g id="页面-1" stroke="none" stroke-width="1" fill="none" fill-rule="evenodd">
        <g id="app-icon-" transform="translate(-82, -77)">
            <g id="编组" transform="translate(82, 77)">
                <path d="M145.609272,0 C226.027052,0 291.218543,65.1469016 291.218543,145.509677 L221.880795,145.509677 C221.880795,103.41489 187.732871,69.2903226 145.609272,69.2903226 C103.485672,69.2903226 69.3377483,103.41489 69.3377483,145.509677 C69.3377483,187.604465 103.485672,221.729032 145.609272,221.729032 L145.609272,291.019355 C65.1914914,291.019355 0,225.872453 0,145.509677 C0,65.1469016 65.1914914,0 145.609272,0 Z" id="路径" fill="#6141EA" fill-rule="nonzero"></path>
                <path d="M349,131.651613 L349,200.941935 C322.864447,200.941935 299.753264,217.894266 291.919555,242.811127 L288.021383,255.210133 C268.78944,316.381624 212.050931,358 147.887523,358 L145.609272,358 L145.609272,288.709677 L147.887523,288.709677 C181.762773,288.709677 211.718027,266.737139 221.871585,234.44148 L225.769757,222.042474 C242.681851,168.249782 292.576289,131.651613 349,131.651613 Z" id="路径" fill="#31A8FF" fill-rule="nonzero"></path>
                <rect id="矩形备份" fill="#31A8FF" x="145.509677" y="145.509677" width="76.2193548" height="76.2193548"></rect>
            </g>
        </g>
    </g>
</svg>