<?xml version="1.0" standalone="no"?><!DOCTYPE svg PUBLIC "-//W3C//DTD SVG 1.1//EN" "http://www.w3.org/Graphics/SVG/1.1/DTD/svg11.dtd"><svg class="icon" width="200px" height="200.00px" viewBox="0 0 1024 1024" version="1.1" xmlns="http://www.w3.org/2000/svg"><path d="M0 0h1024v1024H0V0z" fill="#FFFFFF" /><path d="M141.677714 405.650286a23.259429 23.259429 0 0 0 19.163429 36.571428H511.268571a23.259429 23.259429 0 0 0 18.432-37.522285L364.690286 190.171429a46.518857 46.518857 0 0 0-75.190857 1.901714l-147.821715 213.577143z" fill="#69CB91" /><path d="M337.481143 884.297143a174.592 174.592 0 1 0 0-349.110857 174.592 174.592 0 0 0 0 349.184z" fill="#247ADE" /><path d="M907.702857 186.148571a23.259429 23.259429 0 0 0-23.405714-23.259428H674.962286a23.259429 23.259429 0 0 0-23.259429 23.259428v674.962286a23.259429 23.259429 0 0 0 23.259429 23.259429h209.481143a23.259429 23.259429 0 0 0 23.259428-23.259429V186.148571z" fill="#A0BFF7" /></svg>