<?xml version="1.0" encoding="UTF-8"?>
<svg width="98px" height="98px" viewBox="0 0 98 98" version="1.1" xmlns="http://www.w3.org/2000/svg" xmlns:xlink="http://www.w3.org/1999/xlink">
    <title>形状结合</title>
    <g id="页面-1" stroke="none" stroke-width="1" fill="none" fill-rule="evenodd">
        <path d="M71,98 C73.7614237,98 76,95.7614237 76,93 C76,90.2385763 73.7614237,88 71,88 C68.2385763,88 66,90.2385763 66,93 C66,95.7614237 68.2385763,98 71,98 Z M49,98 C51.7614237,98 54,95.7614237 54,93 C54,90.2385763 51.7614237,88 49,88 C46.2385763,88 44,90.2385763 44,93 C44,95.7614237 46.2385763,98 49,98 Z M27,98 C29.7614237,98 32,95.7614237 32,93 C32,90.2385763 29.7614237,88 27,88 C24.2385763,88 22,90.2385763 22,93 C22,95.7614237 24.2385763,98 27,98 Z M93,76 C95.7614237,76 98,73.7614237 98,71 C98,68.2385763 95.7614237,66 93,66 C90.2385763,66 88,68.2385763 88,71 C88,73.7614237 90.2385763,76 93,76 Z M71,76 C73.7614237,76 76,73.7614237 76,71 C76,68.2385763 73.7614237,66 71,66 C68.2385763,66 66,68.2385763 66,71 C66,73.7614237 68.2385763,76 71,76 Z M49,76 C51.7614237,76 54,73.7614237 54,71 C54,68.2385763 51.7614237,66 49,66 C46.2385763,66 44,68.2385763 44,71 C44,73.7614237 46.2385763,76 49,76 Z M27,76 C29.7614237,76 32,73.7614237 32,71 C32,68.2385763 29.7614237,66 27,66 C24.2385763,66 22,68.2385763 22,71 C22,73.7614237 24.2385763,76 27,76 Z M5,76 C7.76142375,76 10,73.7614237 10,71 C10,68.2385763 7.76142375,66 5,66 C2.23857625,66 0,68.2385763 0,71 C0,73.7614237 2.23857625,76 5,76 Z M93,54 C95.7614237,54 98,51.7614237 98,49 C98,46.2385763 95.7614237,44 93,44 C90.2385763,44 88,46.2385763 88,49 C88,51.7614237 90.2385763,54 93,54 Z M71,54 C73.7614237,54 76,51.7614237 76,49 C76,46.2385763 73.7614237,44 71,44 C68.2385763,44 66,46.2385763 66,49 C66,51.7614237 68.2385763,54 71,54 Z M49,54 C51.7614237,54 54,51.7614237 54,49 C54,46.2385763 51.7614237,44 49,44 C46.2385763,44 44,46.2385763 44,49 C44,51.7614237 46.2385763,54 49,54 Z M27,54 C29.7614237,54 32,51.7614237 32,49 C32,46.2385763 29.7614237,44 27,44 C24.2385763,44 22,46.2385763 22,49 C22,51.7614237 24.2385763,54 27,54 Z M5,54 C7.76142375,54 10,51.7614237 10,49 C10,46.2385763 7.76142375,44 5,44 C2.23857625,44 0,46.2385763 0,49 C0,51.7614237 2.23857625,54 5,54 Z M93,32 C95.7614237,32 98,29.7614237 98,27 C98,24.2385763 95.7614237,22 93,22 C90.2385763,22 88,24.2385763 88,27 C88,29.7614237 90.2385763,32 93,32 Z M71,32 C73.7614237,32 76,29.7614237 76,27 C76,24.2385763 73.7614237,22 71,22 C68.2385763,22 66,24.2385763 66,27 C66,29.7614237 68.2385763,32 71,32 Z M49,32 C51.7614237,32 54,29.7614237 54,27 C54,24.2385763 51.7614237,22 49,22 C46.2385763,22 44,24.2385763 44,27 C44,29.7614237 46.2385763,32 49,32 Z M27,32 C29.7614237,32 32,29.7614237 32,27 C32,24.2385763 29.7614237,22 27,22 C24.2385763,22 22,24.2385763 22,27 C22,29.7614237 24.2385763,32 27,32 Z M5,32 C7.76142375,32 10,29.7614237 10,27 C10,24.2385763 7.76142375,22 5,22 C2.23857625,22 0,24.2385763 0,27 C0,29.7614237 2.23857625,32 5,32 Z M71,10 C73.7614237,10 76,7.76142375 76,5 C76,2.23857625 73.7614237,0 71,0 C68.2385763,0 66,2.23857625 66,5 C66,7.76142375 68.2385763,10 71,10 Z M49,10 C51.7614237,10 54,7.76142375 54,5 C54,2.23857625 51.7614237,0 49,0 C46.2385763,0 44,2.23857625 44,5 C44,7.76142375 46.2385763,10 49,10 Z M27,10 C29.7614237,10 32,7.76142375 32,5 C32,2.23857625 29.7614237,0 27,0 C24.2385763,0 22,2.23857625 22,5 C22,7.76142375 24.2385763,10 27,10 Z" id="形状结合" fill="#E2E4F0"></path>
    </g>
</svg>