<?xml version="1.0" encoding="UTF-8"?>
<svg width="88px" height="88px" viewBox="0 0 88 88" version="1.1" xmlns="http://www.w3.org/2000/svg" xmlns:xlink="http://www.w3.org/1999/xlink">
    <title>形状结合</title>
    <g id="页面-1" stroke="none" stroke-width="1" fill="none" fill-rule="evenodd">
        <path d="M64,88 C66.209139,88 68,86.209139 68,84 C68,81.790861 66.209139,80 64,80 C61.790861,80 60,81.790861 60,84 C60,86.209139 61.790861,88 64,88 Z M44,88 C46.209139,88 48,86.209139 48,84 C48,81.790861 46.209139,80 44,80 C41.790861,80 40,81.790861 40,84 C40,86.209139 41.790861,88 44,88 Z M24,88 C26.209139,88 28,86.209139 28,84 C28,81.790861 26.209139,80 24,80 C21.790861,80 20,81.790861 20,84 C20,86.209139 21.790861,88 24,88 Z M84,68 C86.209139,68 88,66.209139 88,64 C88,61.790861 86.209139,60 84,60 C81.790861,60 80,61.790861 80,64 C80,66.209139 81.790861,68 84,68 Z M64,68 C66.209139,68 68,66.209139 68,64 C68,61.790861 66.209139,60 64,60 C61.790861,60 60,61.790861 60,64 C60,66.209139 61.790861,68 64,68 Z M44,68 C46.209139,68 48,66.209139 48,64 C48,61.790861 46.209139,60 44,60 C41.790861,60 40,61.790861 40,64 C40,66.209139 41.790861,68 44,68 Z M24,68 C26.209139,68 28,66.209139 28,64 C28,61.790861 26.209139,60 24,60 C21.790861,60 20,61.790861 20,64 C20,66.209139 21.790861,68 24,68 Z M4,68 C6.209139,68 8,66.209139 8,64 C8,61.790861 6.209139,60 4,60 C1.790861,60 0,61.790861 0,64 C0,66.209139 1.790861,68 4,68 Z M84,48 C86.209139,48 88,46.209139 88,44 C88,41.790861 86.209139,40 84,40 C81.790861,40 80,41.790861 80,44 C80,46.209139 81.790861,48 84,48 Z M64,48 C66.209139,48 68,46.209139 68,44 C68,41.790861 66.209139,40 64,40 C61.790861,40 60,41.790861 60,44 C60,46.209139 61.790861,48 64,48 Z M44,48 C46.209139,48 48,46.209139 48,44 C48,41.790861 46.209139,40 44,40 C41.790861,40 40,41.790861 40,44 C40,46.209139 41.790861,48 44,48 Z M24,48 C26.209139,48 28,46.209139 28,44 C28,41.790861 26.209139,40 24,40 C21.790861,40 20,41.790861 20,44 C20,46.209139 21.790861,48 24,48 Z M4,48 C6.209139,48 8,46.209139 8,44 C8,41.790861 6.209139,40 4,40 C1.790861,40 0,41.790861 0,44 C0,46.209139 1.790861,48 4,48 Z M84,28 C86.209139,28 88,26.209139 88,24 C88,21.790861 86.209139,20 84,20 C81.790861,20 80,21.790861 80,24 C80,26.209139 81.790861,28 84,28 Z M64,28 C66.209139,28 68,26.209139 68,24 C68,21.790861 66.209139,20 64,20 C61.790861,20 60,21.790861 60,24 C60,26.209139 61.790861,28 64,28 Z M44,28 C46.209139,28 48,26.209139 48,24 C48,21.790861 46.209139,20 44,20 C41.790861,20 40,21.790861 40,24 C40,26.209139 41.790861,28 44,28 Z M24,28 C26.209139,28 28,26.209139 28,24 C28,21.790861 26.209139,20 24,20 C21.790861,20 20,21.790861 20,24 C20,26.209139 21.790861,28 24,28 Z M4,28 C6.209139,28 8,26.209139 8,24 C8,21.790861 6.209139,20 4,20 C1.790861,20 0,21.790861 0,24 C0,26.209139 1.790861,28 4,28 Z M64,8 C66.209139,8 68,6.209139 68,4 C68,1.790861 66.209139,0 64,0 C61.790861,0 60,1.790861 60,4 C60,6.209139 61.790861,8 64,8 Z M44,8 C46.209139,8 48,6.209139 48,4 C48,1.790861 46.209139,0 44,0 C41.790861,0 40,1.790861 40,4 C40,6.209139 41.790861,8 44,8 Z M24,8 C26.209139,8 28,6.209139 28,4 C28,1.790861 26.209139,0 24,0 C21.790861,0 20,1.790861 20,4 C20,6.209139 21.790861,8 24,8 Z" id="形状结合" fill="#E2E4F0"></path>
    </g>
</svg>