<?xml version="1.0" encoding="UTF-8"?>
<svg width="493px" height="142px" viewBox="0 0 493 142" version="1.1" xmlns="http://www.w3.org/2000/svg" xmlns:xlink="http://www.w3.org/1999/xlink">
    <title>logo备份</title>
    <g id="页面-1" stroke="none" stroke-width="1" fill="none" fill-rule="evenodd">
        <g id="画板" transform="translate(-36, -37)" fill="#FFFFFF">
            <g id="logo备份" transform="translate(36, 37)">
                <g id="编组">
                    <path d="M57.1589404,0 C88.7269515,0 114.317881,25.6584166 114.317881,57.3096774 L87.0993377,57.3096774 C87.0993377,40.7304455 73.6945653,27.2903226 57.1589404,27.2903226 C40.6233155,27.2903226 27.218543,40.7304455 27.218543,57.3096774 C27.218543,73.8889093 40.6233155,87.3290323 57.1589404,87.3290323 L57.1589404,114.619355 C25.5909293,114.619355 0,88.9609383 0,57.3096774 C0,25.6584166 25.5909293,0 57.1589404,0 Z" id="路径" fill-rule="nonzero"></path>
                    <path d="M137,51.8516129 L137,79.1419355 C126.740485,79.1419355 117.668187,85.8186912 114.593063,95.6323153 L113.062835,100.515723 C105.513333,124.608405 83.2406235,141 58.0532682,141 L57.1589404,141 L57.1589404,113.709677 L58.0532682,113.709677 C71.3510027,113.709677 83.1099418,105.055689 87.0957225,92.3358903 L88.6259503,87.452483 C95.2647952,66.2659754 114.850864,51.8516129 137,51.8516129 Z" id="路径" fill-rule="nonzero"></path>
                    <rect id="矩形备份" x="57.1589404" y="57.3096774" width="29.9403974" height="30.0193548"></rect>
                </g>
                <path d="M173.451562,78.867126 L162.473216,78.867126 L166.790376,40.2539766 L228.438014,40.2539766 L224.120854,78.867126 L213.142507,78.867126 L216.246309,48.5414195 L176.555365,48.5414195 L176.022472,53.7369685 L204.344496,53.73751 L205.48073,57.7331145 L208.893183,69.7331145 L198.312674,72.7419055 L196.035929,64.73751 L174.897472,64.7369685 L173.451562,78.867126 Z M160.617472,36.7519685 L236.621409,36.7519685 L237.64854,28.1014831 L205.220193,28.1014831 L205.62482,24.6937161 L233.070687,24.6937161 L234.056317,16.3927452 L206.610451,16.3927452 L208.467587,0.751968504 L197.320342,0.751968504 L196.84309,4.77138598 L166.10372,4.77138598 L165.118089,13.0723569 L195.857459,13.0723569 L195.463207,16.3927452 L168.017341,16.3927452 L167.03171,24.6937161 L194.477576,24.6937161 L194.072949,28.1014831 L161.644603,28.1014831 L160.617472,36.7519685 Z M248.214042,16.7972441 L265.52605,16.7972441 L264.913921,21.7797244 L275.892268,21.7797244 L276.504396,16.7972441 L294.238648,16.7972441 L293.62652,21.7797244 L304.604866,21.7797244 L305.216995,16.7972441 L322.529003,16.7972441 L323.85701,5.98779528 L306.545002,5.98779528 L307.136381,1.1742126 L296.158034,1.1742126 L295.566656,5.98779528 L277.832404,5.98779528 L278.423782,1.1742126 L267.445436,1.1742126 L266.854057,5.98779528 L249.542049,5.98779528 L248.214042,16.7972441 Z M404.17824,35.4604331 C401.582052,45.5942913 395.256844,54.4614173 387.027917,61.6395669 C392.038389,64.848622 397.194112,66.8753937 401.452023,68.6488189 L400.124016,79.4582677 C391.809665,76.3336614 384.476126,72.786811 378.375297,68.142126 C370.47982,73.2935039 361.568061,77.0937008 352.832677,79.4582677 L354.160685,68.6488189 C359.709212,66.7909449 365.499262,64.3419291 371.044892,61.132874 C365.668632,54.7147638 362.040703,46.4387795 360.433752,35.4604331 Z M351.230753,26.5088583 L346.935478,61.4706693 L353.475192,59.1061024 L351.929309,71.6889764 L333.53395,78.4448819 L338.534728,37.7405512 L328.40087,37.7405512 L329.780753,26.5088583 L351.230753,26.5088583 Z M315.040813,24.8198819 L312.746382,31.4885223 L268.120847,65.1019685 L303.758248,65.1019685 L304.97213,55.2214567 L316.288272,55.2214567 L313.746382,75.9114173 L245.360359,75.9114173 L246.890759,66.5 L287.280325,35.6293307 L252.909656,35.6293307 L254.237663,24.8198819 L315.040813,24.8198819 Z M389.725196,44.4964567 L373.00433,44.4964567 C374.660496,48.8877953 376.927106,52.4346457 379.614511,55.3059055 C383.545239,52.1812992 387.031524,48.55 389.725196,44.4964567 Z M338.142369,2.44094488 L341.71795,20.7663386 L353.202989,20.7663386 L349.627408,2.44094488 L338.142369,2.44094488 Z M476.573285,1.59645669 L473.18064,29.2112205 L492.434971,29.2112205 L491.055088,40.4429134 L471.800758,40.4429134 L467.02823,79.2893701 L455.796538,79.2893701 L460.569065,40.4429134 L440.470246,40.4429134 L441.850129,29.2112205 L461.864499,29.2112205 L465.257143,1.59645669 L476.573285,1.59645669 Z M433.990595,26.5088583 L429.57082,62.4840551 L440.426351,59.3594488 L438.880467,71.9423228 L416.293792,78.4448819 L421.294571,37.7405512 L412.427445,37.7405512 L413.807327,26.5088583 L433.990595,26.5088583 Z M402.991583,3.8765748 L400.719445,22.3708661 L407.813146,22.3708661 L406.568139,32.5047244 L389.34058,32.5047244 L391.591968,14.1793307 L377.066771,14.1793307 C376.015993,21.3574803 374.214103,27.7755906 369.592828,33.7714567 L358.107789,33.7714567 C364.564739,27.2688976 366.394858,19.2462598 367.442739,10.7169291 L368.283119,3.8765748 L402.991583,3.8765748 Z M434.076227,2.44094488 L437.651808,20.7663386 L426.166768,20.7663386 L422.591188,2.44094488 L434.076227,2.44094488 Z M237.82643,4.86403869 L236.749999,12.6525975 L209.793544,12.6525975 L210.802612,4.86403869 L237.82643,4.86403869 Z" id="形状结合备份" fill-rule="nonzero"></path>
                <path d="M192.564994,114.935553 L192.564994,136.428571 L207.105155,136.428571 L207.105155,140.134264 L177.249358,140.134264 L177.249358,136.428571 L188.639151,136.428571 L188.639151,97 L192.564994,97 L192.564994,111.032223 L205.069532,111.032223 L205.069532,114.935553 L192.564994,114.935553 Z M173.614318,109.698174 C170.964777,106.206588 168.460638,103.027927 166.101901,100.162191 L169.009933,97.6423201 C169.882343,98.6634443 171.069789,100.104547 172.572273,101.965628 C174.074756,103.82671 175.42376,105.531328 176.619284,107.079484 L173.614318,109.698174 Z M180.205857,131.734694 C177.103956,134.271035 174.470571,136.593269 172.305703,138.701396 L170.124679,140.875403 L167.749786,137.81203 C168.266769,137.383817 168.630273,136.955603 168.840298,136.52739 C169.050323,136.099177 169.155335,135.506266 169.155335,134.748657 L169.155335,117.10956 L163,117.10956 L163,113.255639 L172.935777,113.255639 L172.935777,133.216971 L178.654907,128.029001 L180.205857,131.734694 Z M228.147457,106.919441 C227.11349,105.70068 225.780642,104.276047 224.148912,102.645542 C222.517183,101.015038 221.119712,99.7056928 219.956499,98.7175081 L222.476794,96 C223.47845,96.7576083 224.787064,97.9104905 226.402637,99.4586466 C228.018211,101.006803 229.520694,102.50555 230.910087,103.954887 L228.147457,106.919441 Z M241.330536,104.251343 C241.330536,106.095954 240.781241,107.825277 239.682651,109.439313 C238.584061,111.053348 236.629217,112.766201 233.81812,114.577873 L231.103956,111.514501 C232.913398,110.394558 234.278558,109.406373 235.199435,108.549946 C236.120312,107.69352 236.742307,106.804153 237.065422,105.881847 C237.388537,104.959542 237.550094,103.80666 237.550094,102.423201 L237.550094,97.5810956 L254.028943,97.5810956 L254.028943,107.166488 C254.028943,107.891156 254.174345,108.385249 254.465148,108.648765 C254.755951,108.912281 255.192156,109.044039 255.773763,109.044039 L260.66895,109.044039 L260.135811,112.749731 L255.337558,112.749731 C253.528116,112.749731 252.211423,112.453276 251.387481,111.860365 C250.563538,111.267454 250.151567,110.147512 250.151567,108.500537 L250.151567,101.089151 L241.330536,101.089151 L241.330536,104.251343 Z M234.399726,130.734694 L226.596506,137.256713 C226.079523,137.651987 225.287892,138.376656 224.221613,139.43072 L221.84672,136.367347 C222.49295,135.708557 222.904921,135.197995 223.082634,134.835661 C223.260347,134.473326 223.349204,133.962764 223.349204,133.303974 L223.349204,114.77551 L217,114.77551 L217,111.168636 L227.081178,111.168636 L227.081178,131.969925 C227.662785,131.508772 228.55135,130.767633 229.746874,129.746509 C230.942399,128.725385 231.911743,127.901898 232.654907,127.276047 L234.399726,130.734694 Z M259.311868,140.468314 C253.915853,138.327247 249.489182,135.955603 246.031855,133.353383 C242.41297,135.955603 237.79243,138.360186 232.170235,140.567132 L230.231546,137.059076 C235.239824,135.313283 239.521094,133.254565 243.075355,130.882922 C239.811897,127.819549 237.291602,124.064447 235.514472,119.617615 L232.897243,119.617615 L232.897243,116.010741 L256.985443,116.010741 L256.985443,119.667025 C255.240623,124.080917 252.558771,127.868958 248.939887,131.031149 C252.009477,133.139277 256.080722,135.033298 261.153622,136.713212 L259.311868,140.468314 Z M239.440315,119.617615 C241.120512,123.306839 243.301536,126.337272 245.983388,128.708915 C249.246846,125.974937 251.54096,122.944504 252.86573,119.617615 L239.440315,119.617615 Z M302.649084,112.156821 L315.153622,112.156821 L315.153622,116.257787 L302.649084,116.257787 L302.649084,141.061224 L298.674773,141.061224 L298.674773,116.257787 L286.267169,116.257787 L286.267169,112.156821 L298.674773,112.156821 L298.674773,96 L302.649084,96 L302.649084,112.156821 Z M282.43826,107.759398 C279.821031,104.663086 277.236113,101.698532 274.683507,98.8657358 L277.736941,96.1976369 C278.80322,97.3834586 279.465605,98.1081275 279.724097,98.3716434 C282.567506,101.533835 284.52235,103.740781 285.588628,104.992481 L282.43826,107.759398 Z M281.856654,132.315789 L290.289947,125.79377 L291.647029,129.746509 L289.611406,131.228786 C285.475538,134.22628 282.745219,136.268528 281.420449,137.355532 C280.12799,138.475474 279.271736,139.249552 278.851687,139.677766 L276.37986,136.663802 C276.993777,136.16971 277.397671,135.716792 277.59154,135.305048 C277.785408,134.893305 277.882343,134.341568 277.882343,133.649839 L277.882343,115.714286 L271,115.714286 L271,111.613319 L281.856654,111.613319 L281.856654,132.315789 Z M367.845008,139.7884 C361.996632,139.360186 357.101444,138.734336 353.159445,137.910849 C349.217446,137.087361 345.711652,135.950949 342.642062,134.501611 C340.961866,135.720372 338.821231,136.823845 336.220158,137.81203 C333.619084,138.800215 330.37986,139.722521 326.502483,140.578947 L325,136.922664 C328.360393,136.165055 331.139179,135.423917 333.336359,134.699248 C335.533539,133.974579 337.359137,133.200501 338.813153,132.377014 C336.486727,130.894737 334.12799,129.066595 331.736941,126.892589 L334.402637,124.520945 C337.149112,126.958468 339.62094,128.819549 341.81812,130.104189 C343.304447,128.490154 344.225324,126.316148 344.58075,123.58217 L329.798253,123.58217 L329.798253,104.856069 L344.823086,104.856069 L344.823086,100.656284 L326.114746,100.656284 L326.114746,97 L367.602672,97 L367.602672,100.656284 L348.700462,100.656284 L348.700462,104.856069 L363.870697,104.856069 L363.870697,123.58217 L348.506594,123.58217 C348.312725,125.295023 347.965376,126.834945 347.464549,128.201933 C346.963721,129.568922 346.277102,130.795918 345.404693,131.882922 C348.054233,133.002864 351.220757,133.883996 354.904264,134.526316 C358.587772,135.168636 363.176,135.621554 368.66895,135.88507 L367.845008,139.7884 Z M344.823086,112.514501 L344.823086,108.215897 L333.627162,108.215897 L333.627162,112.514501 L344.823086,112.514501 Z M360.138722,112.514501 L360.138722,108.215897 L348.700462,108.215897 L348.700462,112.514501 L360.138722,112.514501 Z M333.627162,115.824919 L333.627162,120.222342 L344.823086,120.222342 L344.823086,119.283566 L344.823086,115.824919 L333.627162,115.824919 Z M348.700462,120.222342 L360.138722,120.222342 L360.138722,115.824919 L348.700462,115.824919 L348.700462,119.431794 L348.700462,120.222342 Z M398.289947,131.031149 C397.191357,131.228786 395.252669,131.541711 392.473883,131.969925 L392.473883,141.407089 L388.741908,141.407089 L388.741908,132.513426 C384.60604,133.106337 381.487983,133.518081 379.387738,133.748657 L379,129.795918 L388.741908,128.610097 L388.741908,121.198711 L380.550951,121.198711 L380.550951,117.295381 C381.64954,114.726101 382.909688,111.102757 384.331392,106.425349 L379.630074,106.425349 L379.630074,102.620838 L385.397671,102.620838 C386.076212,100.216255 386.641662,98.009309 387.094023,96 L390.632129,96.6423201 C390.373637,97.8610813 389.888965,99.8539205 389.178113,102.620838 L398.144545,102.620838 L398.144545,106.425349 L388.111834,106.425349 C386.91631,110.740422 385.736941,114.363767 384.573728,117.295381 L388.790375,117.295381 L388.790375,108.747583 L392.473883,108.747583 L392.473883,117.295381 L397.36907,117.295381 L397.36907,121.198711 L392.473883,121.198711 L392.473883,128.066595 L398.193013,127.177229 L398.289947,131.031149 Z M397.805275,116.257787 C405.139978,112.601504 410.568305,108.269961 414.090255,103.263158 L399.743963,103.263158 L399.743963,99.4092374 L419.324713,99.4092374 L419.324713,103.065521 C417.547582,105.634801 415.576583,107.973505 413.411714,110.081633 C417.289091,112.288579 420.778729,114.429646 423.88063,116.504834 L421.796541,119.864662 C417.983787,117.196563 414.267968,114.79198 410.649084,112.650913 C407.579494,115.220193 404.025233,117.575367 399.986299,119.716434 L397.805275,116.257787 Z M420.730262,125.79377 L412.006165,125.79377 L412.006165,135.576799 L423.153622,135.576799 L423.153622,139.331901 L396.593595,139.331901 L396.593595,135.576799 L408.177256,135.576799 L408.177256,125.79377 L399.404693,125.79377 L399.404693,121.89044 L420.730262,121.89044 L420.730262,125.79377 Z M474.567049,118.443609 C474.470115,120.419979 474.276246,122.799857 473.985443,125.583244 C473.694639,128.366631 473.403836,130.66416 473.113033,132.475832 C472.82223,134.155747 472.394103,135.448622 471.828652,136.354458 C471.263201,137.260294 470.431181,137.894379 469.332591,138.256713 C468.234001,138.619048 466.683051,138.800215 464.67974,138.800215 C463.064166,138.800215 461.448593,138.701396 459.833019,138.503759 L459.106011,134.798067 C460.915454,135.061583 462.59565,135.19334 464.1466,135.19334 C465.439059,135.19334 466.448793,135.069817 467.175801,134.822771 C467.902809,134.575725 468.444026,134.163981 468.799452,133.58754 C469.154878,133.011099 469.429526,132.162907 469.623394,131.042965 C469.849575,129.725385 470.067677,128.160759 470.277702,126.349087 C470.487726,124.537415 470.62505,123.022198 470.689673,121.803437 L464.582805,121.803437 C463.322658,125.953813 461.424359,129.511278 458.887909,132.475832 C456.351459,135.440387 452.772963,138.207304 448.152423,140.776584 L445.680596,137.713212 C448.653251,136.099177 451.084689,134.534551 452.97491,133.019334 C454.865131,131.504117 456.416082,129.857143 457.627762,128.07841 C458.839442,126.299678 459.833019,124.20802 460.608495,121.803437 L454.356225,121.803437 C452.579095,125.196205 450.317292,128.070175 447.570817,130.425349 C444.824342,132.780523 441.221613,134.946294 436.762631,136.922664 L434.775475,133.809882 C438.652852,132.228786 441.835531,130.458289 444.323514,128.498389 C446.811497,126.538489 448.782497,124.306839 450.236513,121.803437 L443.596506,121.803437 C441.334703,123.977444 438.911343,125.970283 436.326426,127.781955 L434,124.86681 C436.100245,123.54923 438.208569,121.918725 440.32497,119.975295 C442.441371,118.031865 444.22658,116.104905 445.680596,114.194415 L440.833876,114.194415 L440.833876,97 L471.562083,97 L471.562083,114.194415 L450.28498,114.194415 C449.218702,115.709631 448.0878,117.126029 446.892276,118.443609 L474.567049,118.443609 Z M467.830108,104.016112 L467.830108,100.409237 L444.56585,100.409237 L444.56585,104.016112 L467.830108,104.016112 Z M467.830108,107.178303 L444.56585,107.178303 L444.56585,110.883996 L467.830108,110.883996 L467.830108,107.178303 Z" id="形状结合" fill-rule="nonzero"></path>
            </g>
        </g>
    </g>
</svg>