<?xml version="1.0" encoding="UTF-8"?>
<svg width="507px" height="155px" viewBox="0 0 507 155" version="1.1" xmlns="http://www.w3.org/2000/svg" xmlns:xlink="http://www.w3.org/1999/xlink">
    <title>logo</title>
    <defs>
        <linearGradient x1="100%" y1="50%" x2="0%" y2="50%" id="linearGradient-1">
            <stop stop-color="#6A11CC" offset="0%"></stop>
            <stop stop-color="#5A63FF" offset="100%"></stop>
        </linearGradient>
        <path d="M176.473216,87.867126 L187.451562,87.867126 L188.333442,80.6889764 L228.024387,80.6889764 L227.142507,87.867126 L238.120854,87.867126 L243.132007,47.0783465 L181.48437,47.0783465 L176.473216,87.867126 Z M174.617472,44.5448819 L250.621409,44.5448819 L251.64854,36.1844488 L219.220193,36.1844488 L219.62482,32.8909449 L247.070687,32.8909449 L248.056317,24.8683071 L220.610451,24.8683071 L221.004703,21.659252 L251.744073,21.659252 L252.729704,13.6366142 L221.990334,13.6366142 L222.467587,9.7519685 L211.320342,9.7519685 L210.84309,13.6366142 L180.10372,13.6366142 L179.118089,21.659252 L209.857459,21.659252 L209.463207,24.8683071 L182.017341,24.8683071 L181.03171,32.8909449 L208.477576,32.8909449 L208.072949,36.1844488 L175.644603,36.1844488 L174.617472,44.5448819 Z M189.370948,72.2440945 L189.837826,68.4438976 L229.528771,68.4438976 L229.061893,72.2440945 L189.370948,72.2440945 Z M190.875332,59.9990157 L191.34221,56.1988189 L231.033154,56.1988189 L230.566277,59.9990157 L190.875332,59.9990157 Z M262.214042,25.7972441 L279.52605,25.7972441 L278.913921,30.7797244 L289.892268,30.7797244 L290.504396,25.7972441 L308.238648,25.7972441 L307.62652,30.7797244 L318.604866,30.7797244 L319.216995,25.7972441 L336.529003,25.7972441 L337.85701,14.9877953 L320.545002,14.9877953 L321.136381,10.1742126 L310.158034,10.1742126 L309.566656,14.9877953 L291.832404,14.9877953 L292.423782,10.1742126 L281.445436,10.1742126 L280.854057,14.9877953 L263.542049,14.9877953 L262.214042,25.7972441 Z M418.17824,44.4604331 C415.582052,54.5942913 409.256844,63.4614173 401.027917,70.6395669 C406.038389,73.848622 411.194112,75.8753937 415.452023,77.6488189 L414.124016,88.4582677 C405.809665,85.3336614 398.476126,81.786811 392.375297,77.142126 C384.47982,82.2935039 375.568061,86.0937008 366.832677,88.4582677 L368.160685,77.6488189 C373.709212,75.7909449 379.499262,73.3419291 385.044892,70.132874 C379.668632,63.7147638 376.040703,55.4387795 374.433752,44.4604331 Z M365.230753,35.5088583 L360.935478,70.4706693 L367.475192,68.1061024 L365.929309,80.6889764 L347.53395,87.4448819 L352.534728,46.7405512 L342.40087,46.7405512 L343.780753,35.5088583 L365.230753,35.5088583 Z M329.040813,33.8198819 L326.746382,40.4885223 L282.120847,74.1019685 L317.758248,74.1019685 L318.97213,64.2214567 L330.288272,64.2214567 L327.746382,84.9114173 L254.360359,84.9114173 L255.890759,77.5 L301.280325,44.6293307 L266.909656,44.6293307 L268.237663,33.8198819 L329.040813,33.8198819 Z M403.725196,53.4964567 L387.00433,53.4964567 C388.660496,57.8877953 390.927106,61.4346457 393.614511,64.3059055 C397.545239,61.1812992 401.031524,57.55 403.725196,53.4964567 Z M352.142369,11.4409449 L355.71795,29.7663386 L367.202989,29.7663386 L363.627408,11.4409449 L352.142369,11.4409449 Z M490.573285,10.5964567 L487.18064,38.2112205 L506.434971,38.2112205 L505.055088,49.4429134 L485.800758,49.4429134 L481.02823,88.2893701 L469.796538,88.2893701 L474.569065,49.4429134 L454.470246,49.4429134 L455.850129,38.2112205 L475.864499,38.2112205 L479.257143,10.5964567 L490.573285,10.5964567 Z M447.990595,35.5088583 L443.57082,71.4840551 L454.426351,68.3594488 L452.880467,80.9423228 L430.293792,87.4448819 L435.294571,46.7405512 L426.427445,46.7405512 L427.807327,35.5088583 L447.990595,35.5088583 Z M416.991583,12.8765748 L414.719445,31.3708661 L421.813146,31.3708661 L420.568139,41.5047244 L403.34058,41.5047244 L405.591968,23.1793307 L391.066771,23.1793307 C390.015993,30.3574803 388.214103,36.7755906 383.592828,42.7714567 L372.107789,42.7714567 C378.564739,36.2688976 380.394858,28.2462598 381.442739,19.7169291 L382.283119,12.8765748 L416.991583,12.8765748 Z M448.076227,11.4409449 L451.651808,29.7663386 L440.166768,29.7663386 L436.591188,11.4409449 L448.076227,11.4409449 Z" id="path-2"></path>
    </defs>
    <g id="页面-1" stroke="none" stroke-width="1" fill="none" fill-rule="evenodd">
        <g id="logo">
            <g id="编组">
                <path d="M63,0 C97.7939392,0 126,28.2060608 126,63 L96,63 C96,44.7746033 81.2253967,30 63,30 C44.7746033,30 30,44.7746033 30,63 C30,81.2253967 44.7746033,96 63,96 L63,126 C28.2060608,126 0,97.7939392 0,63 C0,28.2060608 28.2060608,0 63,0 Z" id="路径" fill="#6141EA" fill-rule="nonzero"></path>
                <path d="M151,57 L151,87 C139.692067,87 129.692673,94.339696 126.303303,105.127723 L124.616701,110.496007 C116.295718,136.980871 91.7469646,155 63.9857189,155 L63,155 L63,125 L63.9857189,125 C78.642346,125 91.6029286,115.48675 95.9960153,101.503993 L97.6826168,96.1357082 C104.999884,72.8455758 126.587449,57 151,57 Z" id="路径" fill="#31A8FF" fill-rule="nonzero"></path>
                <rect id="矩形备份" fill="#31A8FF" x="63" y="63" width="33" height="33"></rect>
            </g>
            <g id="形状结合备份" fill-rule="nonzero">
                <use fill="#6720D4" xlink:href="#path-2"></use>
                <use fill="url(#linearGradient-1)" xlink:href="#path-2"></use>
            </g>
            <g id="让设计更轻易" transform="translate(177, 105)" fill="#5F666B" fill-rule="nonzero">
                <path d="M29.564994,18.9355532 L29.564994,40.4285714 L44.105155,40.4285714 L44.105155,44.1342642 L14.2493578,44.1342642 L14.2493578,40.4285714 L25.6391505,40.4285714 L25.6391505,1 L29.564994,1 L29.564994,15.0322234 L42.0695325,15.0322234 L42.0695325,18.9355532 L29.564994,18.9355532 Z M10.6143175,13.698174 C7.96477707,10.2065879 5.46063824,7.02792696 3.10190101,4.16219119 L6.00993321,1.64232009 C6.88234287,2.66344433 8.06978935,4.10454708 9.57227265,5.96562836 C11.074756,7.82670963 12.4237598,9.53132832 13.6192841,11.0794844 L10.6143175,13.698174 Z M17.2058572,35.7346939 C14.1039562,38.2710347 11.4705714,40.5932689 9.30570303,42.7013963 L7.12467888,44.8754028 L4.74978592,41.8120301 C5.26676942,41.3838167 5.63027345,40.9556033 5.840298,40.5273899 C6.05032254,40.0991765 6.15533482,39.5062657 6.15533482,38.7486574 L6.15533482,21.1095596 L0,21.1095596 L0,17.2556391 L9.93577667,17.2556391 L9.93577667,37.216971 L15.6549067,32.0290011 L17.2058572,35.7346939 Z" id="形状"></path>
                <path d="M65.1474568,10.9194415 C64.1134898,9.70068027 62.7806417,8.27604726 61.1489125,6.64554243 C59.5171833,5.01503759 58.1197123,3.7056928 56.9564994,2.71750806 L59.476794,0 C60.4784495,0.757608306 61.787064,1.91049051 63.4026374,3.45864662 C65.0182109,5.00680272 66.5206942,6.50554959 67.9100873,7.95488722 L65.1474568,10.9194415 Z M78.3305361,8.25134264 C78.3305361,10.0959542 77.7812411,11.8252775 76.6826511,13.4393126 C75.5840612,15.0533477 73.6292173,16.7662012 70.8181195,18.5778733 L68.1039562,15.5145005 C69.9133984,14.3945578 71.278558,13.4063731 72.1994348,12.5499463 C73.1203117,11.6935195 73.7423075,10.8041532 74.0654222,9.88184748 C74.3885368,8.95954171 74.5500942,7.80665951 74.5500942,6.42320086 L74.5500942,1.5810956 L91.0289433,1.5810956 L91.0289433,11.1664876 C91.0289433,11.8911565 91.1743449,12.3852488 91.4651481,12.6487648 C91.7559514,12.9122807 92.1921562,13.0440387 92.7737626,13.0440387 L97.6689502,13.0440387 L97.1358109,16.7497315 L92.3375578,16.7497315 C90.5281155,16.7497315 89.2114232,16.453276 88.3874807,15.8603652 C87.5635383,15.2674544 87.151567,14.1475116 87.151567,12.5005371 L87.151567,5.08915145 L78.3305361,5.08915145 L78.3305361,8.25134264 Z M71.399726,34.7346939 L63.5965063,41.2567132 C63.0795227,41.6519871 62.2878918,42.3766559 61.2216133,43.4307197 L58.8467203,40.3673469 C59.4929497,39.7085571 59.9049209,39.197995 60.082634,38.8356606 C60.2603471,38.4733262 60.3492036,37.9627641 60.3492036,37.3039742 L60.3492036,18.7755102 L54,18.7755102 L54,15.1686359 L64.0811783,15.1686359 L64.0811783,35.9699248 C64.6627847,35.5087719 65.5513501,34.7676334 66.7468745,33.7465091 C67.9423988,32.7253849 68.9117429,31.9018976 69.6549067,31.2760473 L71.399726,34.7346939 Z M96.3118685,44.4683136 C90.9158532,42.3272467 86.4891819,39.9556033 83.0318548,37.3533835 C79.4129703,39.9556033 74.7924302,42.3601862 69.1702346,44.5671321 L67.2315465,41.0590763 C72.2398242,39.3132832 76.5210938,37.254565 80.0753554,34.8829216 C76.811897,31.8195489 74.2916024,28.0644468 72.5144717,23.6176155 L69.8972427,23.6176155 L69.8972427,20.0107411 L93.9854427,20.0107411 L93.9854427,23.6670247 C92.2406234,28.0809166 89.5587715,31.8689581 85.939887,35.0311493 C89.0094765,37.1392768 93.0807216,39.0332975 98.1536222,40.7132116 L96.3118685,44.4683136 Z M76.4403151,23.6176155 C78.1205115,27.3068385 80.3015357,30.3372718 82.9833876,32.7089151 C86.2468459,29.9749373 88.5409602,26.9445041 89.8657304,23.6176155 L76.4403151,23.6176155 Z" id="形状"></path>
                <path d="M139.649084,16.1568206 L152.153622,16.1568206 L152.153622,20.2577873 L139.649084,20.2577873 L139.649084,45.0612245 L135.674773,45.0612245 L135.674773,20.2577873 L123.267169,20.2577873 L123.267169,16.1568206 L135.674773,16.1568206 L135.674773,0 L139.649084,0 L139.649084,16.1568206 Z M119.43826,11.7593985 C116.821031,8.66308629 114.236113,5.69853204 111.683507,2.86573577 L114.736941,0.19763695 C115.80322,1.38345865 116.465605,2.10812746 116.724097,2.37164339 C119.567506,5.53383459 121.52235,7.74078052 122.588628,8.9924812 L119.43826,11.7593985 Z M118.856654,36.3157895 L127.289947,29.7937701 L128.647029,33.7465091 L126.611406,35.2287863 C122.475538,38.22628 119.745219,40.2685285 118.420449,41.3555317 C117.12799,42.4754744 116.271736,43.2495525 115.851687,43.6777658 L113.37986,40.6638024 C113.993777,40.16971 114.397671,39.716792 114.59154,39.3050483 C114.785408,38.8933047 114.882343,38.3415682 114.882343,37.6498389 L114.882343,19.7142857 L108,19.7142857 L108,15.613319 L118.856654,15.613319 L118.856654,36.3157895 Z" id="形状"></path>
                <path d="M204.845008,43.7883996 C198.996632,43.3601862 194.101444,42.7343358 190.159445,41.9108485 C186.217446,41.0873613 182.711652,39.9509488 179.642062,38.5016112 C177.961866,39.7203724 175.821231,40.8238453 173.220158,41.8120301 C170.619084,42.8002148 167.37986,43.7225206 163.502483,44.5789474 L162,40.9226638 C165.360393,40.1650555 168.139179,39.4239169 170.336359,38.6992481 C172.533539,37.9745793 174.359137,37.2005013 175.813153,36.377014 C173.486727,34.8947368 171.12799,33.0665951 168.736941,30.8925886 L171.402637,28.5209452 C174.149112,30.9584676 176.62094,32.8195489 178.81812,34.104189 C180.304447,32.490154 181.225324,30.3161475 181.58075,27.5821697 L166.798253,27.5821697 L166.798253,8.85606874 L181.823086,8.85606874 L181.823086,4.65628357 L163.114746,4.65628357 L163.114746,1 L204.602672,1 L204.602672,4.65628357 L185.700462,4.65628357 L185.700462,8.85606874 L200.870697,8.85606874 L200.870697,27.5821697 L185.506594,27.5821697 C185.312725,29.2950233 184.965376,30.8349445 184.464549,32.2019334 C183.963721,33.5689223 183.277102,34.7959184 182.404693,35.8829216 C185.054233,37.0028643 188.220757,37.8839957 191.904264,38.5263158 C195.587772,39.1686359 200.176,39.6215539 205.66895,39.8850698 L204.845008,43.7883996 Z M181.823086,16.5145005 L181.823086,12.2158969 L170.627162,12.2158969 L170.627162,16.5145005 L181.823086,16.5145005 Z M197.138722,16.5145005 L197.138722,12.2158969 L185.700462,12.2158969 L185.700462,16.5145005 L197.138722,16.5145005 Z M170.627162,19.8249194 L170.627162,24.2223416 L181.823086,24.2223416 L181.823086,23.2835661 L181.823086,19.8249194 L170.627162,19.8249194 Z M185.700462,24.2223416 L197.138722,24.2223416 L197.138722,19.8249194 L185.700462,19.8249194 L185.700462,23.4317938 L185.700462,24.2223416 Z" id="形状"></path>
                <path d="M235.289947,35.0311493 C234.191357,35.2287863 232.252669,35.5417114 229.473883,35.9699248 L229.473883,45.4070892 L225.741908,45.4070892 L225.741908,36.5134264 C221.60604,37.1063373 218.487983,37.5180809 216.387738,37.7486574 L216,33.7959184 L225.741908,32.6100967 L225.741908,25.1987111 L217.550951,25.1987111 L217.550951,21.2953813 C218.64954,18.726101 219.909688,15.1027569 221.331392,10.4253491 L216.630074,10.4253491 L216.630074,6.62083781 L222.397671,6.62083781 C223.076212,4.21625492 223.641662,2.00930899 224.094023,0 L227.632129,0.642320086 C227.373637,1.86108127 226.888965,3.85392052 226.178113,6.62083781 L235.144545,6.62083781 L235.144545,10.4253491 L225.111834,10.4253491 C223.91631,14.7404225 222.736941,18.3637666 221.573728,21.2953813 L225.790375,21.2953813 L225.790375,12.7475832 L229.473883,12.7475832 L229.473883,21.2953813 L234.36907,21.2953813 L234.36907,25.1987111 L229.473883,25.1987111 L229.473883,32.0665951 L235.193013,31.1772288 L235.289947,35.0311493 Z M234.805275,20.2577873 C242.139978,16.6015038 247.568305,12.2699606 251.090255,7.26315789 L236.743963,7.26315789 L236.743963,3.40923738 L256.324713,3.40923738 L256.324713,7.06552095 C254.547582,9.63480129 252.576583,11.9735052 250.411714,14.0816327 C254.289091,16.2885786 257.778729,18.4296455 260.88063,20.5048335 L258.796541,23.8646617 C254.983787,21.1965628 251.267968,18.7919799 247.649084,16.650913 C244.579494,19.2201933 241.025233,21.575367 236.986299,23.7164339 L234.805275,20.2577873 Z M257.730262,29.7937701 L249.006165,29.7937701 L249.006165,39.5767991 L260.153622,39.5767991 L260.153622,43.3319012 L233.593595,43.3319012 L233.593595,39.5767991 L245.177256,39.5767991 L245.177256,29.7937701 L236.404693,29.7937701 L236.404693,25.8904404 L257.730262,25.8904404 L257.730262,29.7937701 Z" id="形状"></path>
                <path d="M311.567049,22.443609 C311.470115,24.4199785 311.276246,26.7998568 310.985443,29.5832438 C310.694639,32.3666309 310.403836,34.6641604 310.113033,36.4758324 C309.82223,38.1557465 309.394103,39.4486216 308.828652,40.3544576 C308.263201,41.2602936 307.431181,41.8943788 306.332591,42.2567132 C305.234001,42.6190476 303.683051,42.8002148 301.67974,42.8002148 C300.064166,42.8002148 298.448593,42.7013963 296.833019,42.5037594 L296.106011,38.7980666 C297.915454,39.0615825 299.59565,39.1933405 301.1466,39.1933405 C302.439059,39.1933405 303.448793,39.0698174 304.175801,38.8227712 C304.902809,38.575725 305.444026,38.1639814 305.799452,37.5875403 C306.154878,37.0110992 306.429526,36.1629073 306.623394,35.0429646 C306.849575,33.7253849 307.067677,32.160759 307.277702,30.349087 C307.487726,28.537415 307.62505,27.0221984 307.689673,25.8034372 L301.582805,25.8034372 C300.322658,29.9538131 298.424359,33.5112782 295.887909,36.4758324 C293.351459,39.4403867 289.772963,42.207304 285.152423,44.7765843 L282.680596,41.7132116 C285.653251,40.0991765 288.084689,38.5345507 289.97491,37.019334 C291.865131,35.5041174 293.416082,33.8571429 294.627762,32.0784103 C295.839442,30.2996778 296.833019,28.2080201 297.608495,25.8034372 L291.356225,25.8034372 C289.579095,29.1962048 287.317292,32.0701754 284.570817,34.4253491 C281.824342,36.7805227 278.221613,38.9462943 273.762631,40.9226638 L271.775475,37.8098818 C275.652852,36.2287863 278.835531,34.4582886 281.323514,32.4983888 C283.811497,30.5384891 285.782497,28.3068385 287.236513,25.8034372 L280.596506,25.8034372 C278.334703,27.9774436 275.911343,29.9702828 273.326426,31.7819549 L271,28.8668099 C273.100245,27.5492302 275.208569,25.9187254 277.32497,23.9752954 C279.441371,22.0318654 281.22658,20.1049051 282.680596,18.1944146 L277.833876,18.1944146 L277.833876,1 L308.562083,1 L308.562083,18.1944146 L287.28498,18.1944146 C286.218702,19.7096312 285.0878,21.1260294 283.892276,22.443609 L311.567049,22.443609 Z M304.830108,8.01611171 L304.830108,4.40923738 L281.56585,4.40923738 L281.56585,8.01611171 L304.830108,8.01611171 Z M304.830108,11.1783029 L281.56585,11.1783029 L281.56585,14.8839957 L304.830108,14.8839957 L304.830108,11.1783029 Z" id="形状"></path>
            </g>
        </g>
    </g>
</svg>