<?xml version="1.0" standalone="no"?><!DOCTYPE svg PUBLIC "-//W3C//DTD SVG 1.1//EN" "http://www.w3.org/Graphics/SVG/1.1/DTD/svg11.dtd"><svg class="icon" width="200px" height="200.00px" viewBox="0 0 1024 1024" version="1.1" xmlns="http://www.w3.org/2000/svg"><path d="M820.394667 799.232l75.434666-75.392 75.392 75.392a106.666667 106.666667 0 1 1-150.826666 0zM378.794667 46.08l482.730666 482.688a42.666667 42.666667 0 0 1 0 60.373333l-362.026666 362.026667a42.666667 42.666667 0 0 1-60.330667 0l-362.026667-362.026667a42.666667 42.666667 0 0 1 0-60.373333l331.861334-331.861333-90.538667-90.496L378.88 46.08zM469.333333 257.28L167.637333 558.933333l301.653334 301.738667 301.738666-301.696L469.333333 257.237333z" fill="#80809A" /></svg>