<?xml version="1.0" standalone="no"?><!DOCTYPE svg PUBLIC "-//W3C//DTD SVG 1.1//EN" "http://www.w3.org/Graphics/SVG/1.1/DTD/svg11.dtd"><svg class="icon" width="200px" height="200.00px" viewBox="0 0 1024 1024" version="1.1" xmlns="http://www.w3.org/2000/svg"><path d="M512 293.54666667c120.45653333 0 218.45333333 97.9968 218.45333333 218.45333333s-97.9968 218.45333333-218.45333333 218.45333333-218.45333333-97.9968-218.45333333-218.45333333 97.9968-218.45333333 218.45333333-218.45333333m0-72.81777778c-160.8704 0-291.27111111 130.41208889-291.27111111 291.27111111s130.40071111 291.27111111 291.27111111 291.27111111 291.27111111-130.41208889 291.27111111-291.27111111-130.40071111-291.27111111-291.27111111-291.27111111zM111.50222222 548.40888889H38.68444445c-20.10453333 0-36.40888889-16.30435555-36.4088889-36.40888889s16.30435555-36.40888889 36.4088889-36.40888889h72.81777777c20.10453333 0 36.40888889 16.30435555 36.40888889 36.40888889s-16.30435555 36.40888889-36.40888889 36.40888889zM985.31555555 548.40888889h-72.81777777c-20.10453333 0-36.40888889-16.30435555-36.40888889-36.40888889s16.30435555-36.40888889 36.40888889-36.40888889h72.81777777c20.10453333 0 36.40888889 16.30435555 36.4088889 36.40888889s-16.30435555 36.40888889-36.4088889 36.40888889z" fill="#80809A" /><path d="M512 1021.72444445c-20.10453333 0-36.40888889-16.30435555-36.40888889-36.4088889v-72.81777777c0-20.10453333 16.30435555-36.40888889 36.40888889-36.40888889s36.40888889 16.30435555 36.40888889 36.40888889v72.81777777c0 20.10453333-16.30435555 36.40888889-36.40888889 36.4088889zM512 147.91111111c-20.10453333 0-36.40888889-16.30435555-36.40888889-36.40888889V38.68444445c0-20.10453333 16.30435555-36.40888889 36.40888889-36.4088889s36.40888889 16.30435555 36.40888889 36.4088889v72.81777777c0 20.10453333-16.30435555 36.40888889-36.40888889 36.40888889z" fill="#80809A" /><path d="M218.13475555 254.54364445c-9.3184 0-18.6368-3.54986667-25.73653333-10.67235556l-40.82346667-40.82346667c-14.22222222-14.22222222-14.22222222-37.26222222 0-51.48444444s37.26222222-14.22222222 51.48444445 0l40.82346667 40.82346667c14.22222222 14.22222222 14.22222222 37.26222222 0 51.48444444a36.32469333 36.32469333 0 0 1-25.74791112 10.67235556zM846.68871111 883.0976c-9.3184 0-18.6368-3.54986667-25.73653333-10.67235555l-40.82346667-40.82346667c-14.22222222-14.22222222-14.22222222-37.26222222 0-51.48444445s37.26222222-14.22222222 51.48444444 0l40.82346667 40.82346667c14.22222222 14.22222222 14.22222222 37.26222222 0 51.48444445a36.34403555 36.34403555 0 0 1-25.74791111 10.67235555z" fill="#80809A" /><path d="M177.31128889 883.0976c-9.3184 0-18.6368-3.54986667-25.73653334-10.67235555-14.22222222-14.22222222-14.22222222-37.26222222 0-51.48444445l40.82346667-40.82346667c14.22222222-14.22222222 37.26222222-14.22222222 51.48444445 0s14.22222222 37.26222222 0 51.48444445l-40.82346667 40.82346667a36.30535111 36.30535111 0 0 1-25.74791111 10.67235555zM805.86524445 254.54364445c-9.3184 0-18.6368-3.54986667-25.73653334-10.67235556-14.22222222-14.22222222-14.22222222-37.26222222 0-51.48444444l40.82346667-40.82346667c14.22222222-14.22222222 37.26222222-14.22222222 51.48444444 0s14.22222222 37.26222222 0 51.48444444l-40.82346667 40.82346667a36.30535111 36.30535111 0 0 1-25.7479111 10.67235556z" fill="#80809A" /></svg>