<?xml version="1.0" standalone="no"?><!DOCTYPE svg PUBLIC "-//W3C//DTD SVG 1.1//EN" "http://www.w3.org/Graphics/SVG/1.1/DTD/svg11.dtd"><svg class="icon" width="200px" height="200.00px" viewBox="0 0 1024 1024" version="1.1" xmlns="http://www.w3.org/2000/svg"><path d="M934.31355401 886.11627763l-162.11811182-161.99110985c62.29450371-72.01016016 96.45805371-162.94362539 96.45805371-259.02067325 0-105.91970625-41.21216367-205.48931045-116.14337139-280.23001523s-174.37380908-116.20687237-280.16651337-116.20687149c-105.91970625 0-205.48931045 41.21216367-280.23001524 116.14337051C117.24589004 259.61518408 75.97022539 359.18478828 75.97022539 464.97749258c0 105.91970625 41.21216367 205.48931045 116.1433705 280.23001435 74.86770586 74.86770586 174.43731006 116.14337138 280.23001525 116.14337139 87.44090888 0 170.56374785-28.13095283 239.08135165-80.13829131l163.9596419 163.9596419c8.12813115 8.12813115 18.79630312 12.19219629 29.5279752 12.19219628s21.33634394-4.12756612 29.52797607-12.19219628c16.19276045-16.31976328 16.19276045-42.73618886-0.12700195-59.05595128zM159.34706826 464.97749258c0-172.53227988 140.40076201-312.86954092 312.86954092-312.86954092 172.53227988 0 312.86954092 140.40076201 312.86954092 312.86954092 0.12700195 172.59578086-140.1467581 312.99654287-312.74253896 312.99654287S159.34706826 637.57327344 159.34706826 464.97749258z m0 0" fill="#80809A" /></svg>