<?xml version="1.0" standalone="no"?><!DOCTYPE svg PUBLIC "-//W3C//DTD SVG 1.1//EN" "http://www.w3.org/Graphics/SVG/1.1/DTD/svg11.dtd"><svg class="icon" width="200px" height="200.00px" viewBox="0 0 1024 1024" version="1.1" xmlns="http://www.w3.org/2000/svg"><path d="M794.0096 445.2608a35.4304 35.4304 0 0 0-9.3696-24.9344l-0.512-0.512a34.49344 34.49344 0 0 0-24.01792-9.57952 36.5568 36.5568 0 0 0-26.33728 11.29472L547.84 607.4624V107.46368a35.84 35.84 0 1 0-71.68 0v499.8144L290.42688 421.53984c-6.97856-6.97856-15.97952-10.85952-25.41568-11.0848l-0.86016-0.01024c-9.1136 0-17.60768 3.43552-24.07936 9.37984l-0.512 0.512c-13.29664 13.83424-12.76416 36.38784 1.7152 50.3552l242.54464 242.54464a35.90656 35.90656 0 0 0 11.94496 9.82528c0.59392 0.31744 1.2032 0.59392 1.81248 0.87552 0.22528 0.09728 0.44544 0.20992 0.67584 0.30208 4.224 1.80224 8.7552 2.72896 13.3376 2.72896l0.08704-0.00512 0.32256 0.01536c0.09216 0 0.17408-0.01536 0.26624-0.01536 0.09728 0 0.18944 0.01536 0.28672 0.01536a33.75616 33.75616 0 0 0 20.224-6.67136c2.51904-1.79712 4.80768-3.8912 6.784-6.26176l243.36384-243.36896c6.97856-6.97344 10.85952-15.97952 11.0848-25.41568z" fill="#ffffff" /><path d="M880.64 747.57632v61.44c0 39.58784-32.09216 71.68-71.68 71.68H215.04c-39.58784 0-71.68-32.09216-71.68-71.68v-61.44a35.84 35.84 0 1 0-71.68 0v61.44c0 79.17568 64.18432 143.36 143.36 143.36h593.92c79.17568 0 143.36-64.18432 143.36-143.36v-61.44a35.84 35.84 0 1 0-71.68 0z" fill="#ffffff" /></svg>