<?xml version="1.0" standalone="no"?><!DOCTYPE svg PUBLIC "-//W3C//DTD SVG 1.1//EN" "http://www.w3.org/Graphics/SVG/1.1/DTD/svg11.dtd"><svg class="icon" width="200px" height="200.00px" viewBox="0 0 1024 1024" version="1.1" xmlns="http://www.w3.org/2000/svg"><path d="M172.67798243 543.42197475c103.62190393 33.4873509 219.2477093 6.31970019 298.77354838-73.18848625 79.54349283-79.54349283 106.71114354-195.18694969 73.18848626-298.79120213-15.83455687-48.84528242 29.62138908-96.47252253 79.15513173-81.59121636a413.55201991 413.55201991 0 0 1 173.9682907 104.01026503c164.17098979 164.17098979 162.1409189 432.06980039-4.1660598 598.4297381-167.01308928 167.04839566-438.17766798 167.78981262-601.43071232 1.27100131a413.49906091 413.49906091 0 0 1-101.04459605-170.87905223c-14.91661141-49.5337415 32.65766969-95.11325696 81.5559111-79.26104747z m-10.16801052 70.69944264a342.8702299 342.8702299 0 0 0 80.07307718 130.01283128c135.59111566 138.29199303 361.65280313 137.69179818 501.07457424-1.76527928 138.9098405-138.94514688 140.6045093-362.1470811 4.1660598-498.5855306a342.92318777 342.92318777 0 0 0-132.46657081-82.50916181c36.02935353 125.6525915 1.48283506 263.43265394-93.96582514 358.88131413-95.46631282 95.44866019-233.22872263 129.99517981-358.88131527 93.96582628z m-10.59167687-359.00488478l9.60312093-3.17750272a94.56602112 94.56602112 0 0 0 60.14307098-60.14307099l3.17750274-9.60312093c5.33114425-16.15230749 28.17386041-16.15230749 33.50500467 0l3.17750271 9.60312094a94.56602112 94.56602112 0 0 0 60.14307099 60.14307099l9.60312093 3.17750271c16.15230749 5.33114425 16.15230749 28.19151303 0 33.54030992l-9.60312092 3.15985009a94.53071474 94.53071474 0 0 0-60.14307099 60.12541839l-3.17750272 9.60312092c-5.33114425 16.16996011-28.19151305 16.16996011-33.52265729 0l-3.17750272-9.60312092a94.53071474 94.53071474 0 0 0-60.12541838-60.12541839l-9.60312093-3.17750272c-16.16996011-5.33114425-16.16996011-28.19151305 0-33.5403099z" fill="#80809A" /></svg>